<svg xmlns="http://www.w3.org/2000/svg" width="800" height="600" viewBox="0 0 800 600" role="img" aria-label="After detailing placeholder">
  <defs>
    <linearGradient id="bgA" x1="0" y1="0" x2="1" y2="1">
      <stop offset="0" stop-color="#0e1a24"/>
      <stop offset="1" stop-color="#050708"/>
    </linearGradient>
    <linearGradient id="bodyA" x1="0" y1="0" x2="0" y2="1">
      <stop offset="0" stop-color="#cfd6dd"/>
      <stop offset="0.5" stop-color="#7e8a95"/>
      <stop offset="1" stop-color="#3a424b"/>
    </linearGradient>
    <radialGradient id="glow" cx="0.5" cy="0.2" r="0.8">
      <stop offset="0" stop-color="#38B6FF" stop-opacity="0.35"/>
      <stop offset="1" stop-color="#38B6FF" stop-opacity="0"/>
    </radialGradient>
  </defs>
  <rect width="800" height="600" fill="url(#bgA)"/>
  <rect width="800" height="600" fill="url(#glow)"/>
  <g>
    <path d="M120 380 q40 -120 150 -130 l180 -8 q90 0 150 70 l70 18 q40 12 40 50 l0 30 -660 0 z" fill="url(#bodyA)"/>
    <path d="M150 300 q40 -90 130 -98 l170 -6 q70 4 120 56 l-540 48 z" fill="#ffffff" opacity="0.18"/>
    <circle cx="250" cy="430" r="48" fill="#0c0f12"/>
    <circle cx="250" cy="430" r="22" fill="#38B6FF" opacity="0.5"/>
    <circle cx="560" cy="430" r="48" fill="#0c0f12"/>
    <circle cx="560" cy="430" r="22" fill="#38B6FF" opacity="0.5"/>
  </g>
  <g stroke="#ffffff" stroke-width="3" opacity="0.6" stroke-linecap="round">
    <line x1="600" y1="250" x2="640" y2="210"/>
    <line x1="610" y1="270" x2="660" y2="270"/>
    <line x1="600" y1="290" x2="640" y2="330"/>
  </g>
  <text x="40" y="70" font-family="Poppins, Arial, sans-serif" font-size="34" font-style="italic" font-weight="700" fill="#38B6FF" letter-spacing="4">AFTER</text>
</svg>
